<svg id="ecQi375F6P11" xmlns="http://www.w3.org/2000/svg" xmlns:xlink="http://www.w3.org/1999/xlink" viewBox="0 0 500 500" shape-rendering="geometricPrecision" text-rendering="geometricPrecision"><style><![CDATA[#ecQi375F6P110_to {animation: ecQi375F6P110_to__to 2000ms linear infinite normal forwards}@keyframes ecQi375F6P110_to__to { 0% {transform: translate(254.880043px,191.464184px)} 50% {transform: translate(255.055939px,172.520283px)} 100% {transform: translate(254.883343px,191.462279px)}}]]></style><g id="ecQi375F6P12"><path id="ecQi375F6P13" d="M321.18,113.44C321.18,113.44,266.84,88.65,209,115.62C151.16,142.59,118,203.18,89.71,251.62C61.42,300.06,70.71,352.53,110.71,379.57C150.71,406.61,182.26,374.57,241.35,378C300.44,381.43,315.56,391.21,367.35,362.16C419.14,333.11,434.83,255.26,401.3,193.75C367.77,132.24,321.18,113.44,321.18,113.44Z" fill="rgb(64,123,255)" stroke="none" stroke-width="1"/><path id="ecQi375F6P14" d="M321.18,113.44C321.18,113.44,266.84,88.65,209,115.62C151.16,142.59,118,203.18,89.71,251.62C61.42,300.06,70.71,352.53,110.71,379.57C150.71,406.61,182.26,374.57,241.35,378C300.44,381.43,315.56,391.21,367.35,362.16C419.14,333.11,434.83,255.26,401.3,193.75C367.77,132.24,321.18,113.44,321.18,113.44Z" opacity="0.7" fill="rgb(255,255,255)" stroke="none" stroke-width="1"/><path id="ecQi375F6P15" d="M355.75,357.76C351.94,355.12,346.98,359.69,345.09,362.85C343.52,365.47,341.5,369.51,341.03,370.46L340.97,370.23L341.08,370.14L340.97,370.2C340.10809,366.894544,338.866496,363.699955,337.27,360.68C338.1,359.68,341.47,358.49,342.27,358.17C345.39,356.82,348.4,355.74,350.27,352.67C351.71,350.24,352.36,346.82,349.21,345.45C344.96,343.59,340.99,349.04,339.74,352.5C338.74,355.22,337.65,359.26,337.29,360.56C335.909183,357.959967,334.341744,355.463427,332.6,353.09C333.801076,351.803827,335.14282,350.656636,336.6,349.67C339.28,347.57,341.9,345.76,342.89,342.32C343.66,339.6,343.41,336.13,340.02,335.61C335.44,334.9,333.02,341.19,332.67,344.85C332.45,347.42,332.39,351.04,332.37,352.74C331.05,350.94,329.75,349.31,328.56,347.82C327.37,346.33,326.2,344.82,325.33,343.59L325.64,343.45C325.523086,343.498458,325.395582,343.515688,325.27,343.5L325.22,343.44C325.85,342.32,328.95,340.51,329.63,340.05C332.45,338.15,335.2,336.53,336.43,333.18C337.43,330.52,337.43,327.04,334.06,326.27C329.54,325.27,326.64,331.33,326.06,334.96C325.6,337.8,325.25,341.96,325.14,343.32C324.99,343.1,324.85,342.89,324.73,342.68C323.130548,340.073006,321.710592,337.360055,320.48,334.56L320.81,334.5C320.688318,334.528546,320.561682,334.528546,320.44,334.5C320.39,334.4,320.35,334.29,320.3,334.19C321.270187,332.734817,322.400592,331.393089,323.67,330.19C325.97,327.68,328.27,325.47,328.67,321.92C328.99,319.11,328.19,315.73,324.76,315.76C320.12,315.76,318.71,322.4,318.99,326.07C319.16,328.31,319.58,331.33,319.86,333.18C319.07,331.32,318.49,329.76,318.13,328.73L318.13,328.73C317.95,328.22,317.82,327.85,317.75,327.62C317.664414,326.046192,317.701192,324.468113,317.86,322.9C318.01,319.51,318.35,316.33,316.38,313.35C314.83,310.98,312.03,308.91,309.38,311.14C305.85,314.14,309.02,320.14,311.59,322.74C313.4,324.59,316.11,327.01,317.39,328.13C317.73,329.13,318.53,331.42,319.74,334.2C318.40921,333.269262,317.161244,332.225387,316.01,331.08C313.46,328.83,311.2,326.57,307.64,326.23C304.83,325.95,301.46,326.83,301.56,330.23C301.69,334.86,308.32,336.14,311.98,335.79C314.63,335.53,318.35,334.91,319.98,334.64C321.223577,337.498116,322.667158,340.264979,324.3,342.92C324.39,343.08,324.5,343.24,324.6,343.39C323.062352,342.822583,321.579563,342.116334,320.17,341.28C317.17,339.72,314.4,338.09,310.87,338.63C308.07,339.06,305.02,340.74,305.96,344.03C307.23,348.5,313.96,348.1,317.43,346.86C319.93,345.96,323.38,344.45,324.86,343.78C325.75,345.07,326.86,346.5,328.16,348.1C329.46,349.7,330.88,351.52,332.32,353.51L332.32,353.51C331.32,353.93,327.7,351.74,326.89,351.33C323.89,349.77,321.13,348.14,317.59,348.68C314.8,349.11,311.75,350.79,312.69,354.08C313.96,358.55,320.69,358.15,324.15,356.91C327.38,355.75,332.15,353.57,332.32,353.51L332.32,353.67C332.310541,353.620447,332.310541,353.569553,332.32,353.52C334.004855,355.837406,335.525245,358.270031,336.87,360.8C335.58,361.09,332.2,360.14,331.41,359.97C328.09,359.26,325.01,358.41,321.74,359.86C319.16,361,316.66,363.42,318.43,366.36C320.82,370.36,327.22,368.18,330.23,366.08C332.62,364.41,335.91,361.73,336.92,360.9C338.484585,363.88225,339.705729,367.032399,340.56,370.29C339.16,370.46,336.06,369.59,335.31,369.43C331.99,368.73,328.91,367.87,325.64,369.32C323.06,370.47,320.56,372.88,322.33,375.82C324.72,379.82,331.12,377.64,334.13,375.54C336.38,373.96,339.43,371.49,340.62,370.54C341.748795,375.030316,342.110556,379.679117,341.69,384.29L342.14,384.29C342.566958,379.653728,342.212019,374.978671,341.09,370.46C341.9,369.6,345.72,369.03,346.55,368.85C349.88,368.14,353.03,367.66,355.42,365C357.27,363,358.56,359.72,355.75,357.76Z" fill="rgb(255,255,255)" stroke="none" stroke-width="1"/><path id="ecQi375F6P16" d="M386,374.4C382.48,375.01,380.4,377.4,378,379.87C377.46,380.42,375.37,382.87,374.11,383.5C373.002228,380.319074,372.267313,377.020346,371.92,373.67C373.22,373.8,377.44,374.2,380.35,374.26C384.03,374.33,390.54,372.56,390.35,367.93C390.19,364.51,386.77,363.93,383.99,364.37C380.46,364.98,378.38,367.37,375.99,369.83C375.42,370.41,373.14,373.08,371.91,373.55C371.623308,370.699566,371.536429,367.832563,371.65,364.97L371.76,365.08L371.67,364.95C371.82,364.95,377.02,364.07,380.35,363.24C383.92,362.35,389.74,358.93,388.35,354.52C387.3,351.26,383.83,351.52,381.27,352.75C378.03,354.27,376.66,357.15,375.01,360.12C374.57,360.91,372.75,364.76,371.71,364.95L371.71,364.95C371.8,362.49,371.99,360.2,372.17,358.14C372.35,356.08,372.49,354.28,372.51,352.72C374.11,352.44,377.82,351.78,380.4,351.14C383.97,350.25,389.79,346.83,388.4,342.42C387.4,339.16,383.88,339.42,381.32,340.65C378,342.15,376.65,345,375,348C374.290282,349.481565,373.450312,350.897132,372.49,352.23C372.49,352.04,372.49,351.85,372.49,351.67C372.370887,348.554008,372.036759,345.449959,371.49,342.38C372.97,341.72,376.41,340.17,378.75,338.9C381.99,337.16,386.75,332.42,384.32,328.49C382.5,325.59,379.22,326.73,377.03,328.49C374.26,330.76,373.64,333.89,372.77,337.17C372.447544,338.766193,371.989208,340.331895,371.4,341.85C370.86,338.85,370.27,336.53,369.98,335.49C370.42,333.85,371.33,330.33,371.81,327.79C372.49,324.17,371.81,317.46,367.2,316.91C363.8,316.51,362.62,319.78,362.64,322.61C362.64,326.19,364.72,328.61,366.73,331.37C367.731495,332.588401,368.637516,333.882239,369.44,335.24C369.51,335.47,369.61,335.85,369.74,336.37L369.74,336.37L369.74,336.37C370.01,337.43,370.39,339.05,370.74,341.03C369.94,339.34,368.62,336.6,367.51,334.64C365.7,331.43,360.87,326.72,356.99,329.27C354.12,331.15,355.33,334.41,357.16,336.56C359.48,339.28,362.62,339.85,365.93,340.65C367.643928,340.94738,369.320444,341.430217,370.93,342.09L370.99,342.42C370.914084,342.522198,370.814593,342.604536,370.7,342.66L371.01,342.53C371.554918,345.539697,371.889064,348.583763,372.01,351.64C372.01,351.89,372.01,352.14,372.01,352.4C371.17,351.34,368.56,348.07,366.6,345.96C364.1,343.26,358.3,339.81,355.12,343.19C352.77,345.68,354.71,348.58,356.99,350.19C359.88,352.3,363.07,352.11,366.46,352.13C367.28,352.13,370.87,351.91,372.01,352.49L372.01,352.57C371.911344,352.652206,371.794958,352.710399,371.67,352.74L372.01,352.68C372.01,354.21,371.84,355.99,371.67,357.99C371.5,359.99,371.34,361.99,371.24,364.2C370.24,362.8,368.24,359.83,366.6,357.81C364.3,354.94,358.77,351.08,355.36,354.21C352.83,356.53,354.55,359.56,356.7,361.38C359.43,363.69,362.62,363.74,366.01,364C367.765015,364.010534,369.513058,364.22191,371.22,364.63C371.093147,367.572202,371.176693,370.519708,371.47,373.45C370.47,372.56,367.28,369.83,364.96,368.11C361.96,365.93,355.67,363.6,353.16,367.51C351.31,370.4,353.75,372.88,356.3,374.1C359.53,375.63,362.63,374.86,365.97,374.25C366.77,374.1,370.25,373.25,371.49,373.59C371.837682,376.997548,372.579301,380.353289,373.7,383.59L373.7,383.59L373.78,383.82C372.86,383.29,368.94,381.05,366.18,379.75C362.85,378.17,356.18,377.12,354.49,381.44C353.24,384.63,356.1,386.6,358.84,387.29C362.31,388.18,365.2,386.82,368.36,385.57C369.15,385.26,372.64,383.57,373.8,383.87C375.379031,388.246841,377.677249,392.329558,380.6,395.95L380.96,395.67C378.052206,392.077357,375.770289,388.020614,374.21,383.67C375.73,383.82,379.64,384.18,382.39,384.24C386.07,384.31,392.58,382.55,392.39,377.91C392.23,374.54,388.81,373.92,386,374.4Z" fill="rgb(255,255,255)" stroke="none" stroke-width="1"/><path id="ecQi375F6P17" d="M115.65,362.93C112.14,362.23,109.33,363.74,106.24,365.15C105.54,365.47,102.71,366.99,101.3,367.15C101.412527,363.76996,101.915876,360.4143,102.8,357.15C103.96,357.74,107.8,359.63,110.46,360.74C113.86,362.13,120.57,362.83,122.04,358.43C123.12,355.17,120.15,353.36,117.38,352.81C113.87,352.11,111.06,353.62,107.97,355.04C107.23,355.37,104.14,357.04,102.83,357.04C103.583248,354.276026,104.532314,351.569184,105.67,348.94C105.696636,348.983534,105.716845,349.030688,105.73,349.08L105.73,348.92C105.87,348.92,111.04,350.03,114.44,350.45C118.09,350.91,124.75,349.82,125.01,345.19C125.2,341.77,121.86,340.8,119.01,340.99C115.44,341.24,113.12,343.43,110.52,345.61C109.82,346.18,106.74,349.13,105.7,348.92L105.7,348.92C106.7,346.66,107.7,344.59,108.57,342.73C109.44,340.87,110.27,339.24,110.85,337.79C112.45,338.12,116.14,338.84,118.78,339.17C122.43,339.62,129.09,338.53,129.35,333.9C129.54,330.48,126.2,329.51,123.35,329.7C119.78,329.95,117.46,332.14,114.85,334.32C113.655361,335.433097,112.363547,336.437098,110.99,337.32C111.06,337.15,111.12,336.97,111.18,336.8C112.186526,333.858916,112.988439,330.851741,113.58,327.8C115.21,327.72,118.97,327.51,121.58,327.18C125.23,326.72,131.42,324.02,130.58,319.47C129.92,316.1,126.45,315.99,123.76,316.87C120.37,317.99,118.66,320.68,116.66,323.44C115.775081,324.812118,114.771214,326.103759,113.66,327.3C114.23,324.3,114.52,321.94,114.66,320.86C115.66,319.49,117.78,316.53,119.14,314.33C121.07,311.2,122.86,304.69,118.75,302.53C115.75,300.92,113.45,303.53,112.45,306.2C111.19,309.55,112.21,312.57,113.11,315.85C113.599966,317.346462,113.97768,318.877372,114.24,320.43C114.24,320.67,114.18,321.06,114.12,321.59L114.12,321.59C113.99,322.68,113.76,324.33,113.41,326.32C113.27,324.45,113.02,321.42,112.69,319.19C112.16,315.55,109.35,309.41,104.81,310.39C101.46,311.11,101.41,314.59,102.35,317.26C103.53,320.63,106.26,322.26,109.05,324.26C110.549025,325.152728,111.944246,326.209206,113.21,327.41C113.192512,327.517862,113.169144,327.624688,113.14,327.73C113.033837,327.797593,112.914546,327.841901,112.79,327.86L113.12,327.86C112.54072,330.864711,111.752132,333.825259,110.76,336.72C110.68,336.95,110.59,337.19,110.5,337.43C110.09,336.13,108.84,332.15,107.77,329.43C106.41,326.02,102.24,320.71,98.06,322.71C94.97,324.2,95.73,327.59,97.26,329.97C99.19,332.97,102.26,333.97,105.4,335.18C106.16,335.48,109.58,336.57,110.4,337.52L110.4,337.6C110.27774,337.623015,110.15226,337.623015,110.03,337.6L110.36,337.67C109.79,339.09,109.01,340.67,108.13,342.5C107.25,344.33,106.39,346.09,105.5,348.14C105.11,346.48,104.25,342.97,103.5,340.51C102.39,337,98.62,331.4,94.3,333.1C91.11,334.35,91.63,337.79,92.98,340.27C94.69,343.41,97.65,344.61,100.72,346.07C102.352372,346.716988,103.908438,347.541972,105.36,348.53C104.177804,351.228758,103.19191,354.009313,102.41,356.85C101.78,355.66,99.8,351.96,98.26,349.52C96.26,346.42,91.26,341.97,87.47,344.71C84.71,346.71,86.08,349.93,88.03,351.99C90.48,354.58,93.65,354.99,97.03,355.61C97.83,355.76,101.39,356.2,102.41,356.98C101.516673,360.277024,101.006636,363.666088,100.89,367.08L100.76,367.08L100.89,367.15C100.89,367.23,100.89,367.31,100.89,367.39C100.23,366.57,97.37,363.06,95.27,360.85C92.73,358.19,86.89,354.8,83.75,358.22C81.43,360.74,83.4,363.61,85.75,365.22C88.66,367.29,91.85,367.07,95.24,367.04C96.1,367.04,99.95,366.75,100.93,367.41C100.827504,372.066103,101.503472,376.706624,102.93,381.14L103.36,381C101.932553,376.594358,101.256451,371.979964,101.36,367.35C102.73,368.04,106.25,369.78,108.79,370.82C112.2,372.22,118.91,372.91,120.37,368.51C121.39,365.29,118.42,363.48,115.65,362.93Z" fill="rgb(255,255,255)" stroke="none" stroke-width="1"/><path id="ecQi375F6P18" d="M163.54,388.2C161.21,387.74,159.35,388.74,157.3,389.68C156.2562,390.249227,155.148425,390.692336,154,391C154.078651,388.7656,154.414192,386.547675,155,384.39C155.77,384.78,158.29,386.04,160.08,386.77C162.33,387.69,166.79,388.16,167.76,385.24C168.48,383.08,166.51,381.88,164.67,381.51C162.34,381.05,160.48,382.05,158.43,382.99C157.94,383.21,155.89,384.32,155.02,384.31C155.524915,382.479673,156.153015,380.68558,156.9,378.94C156.906471,378.973019,156.906471,379.006981,156.9,379.04L156.9,378.93C157,378.93,160.42,379.67,162.68,379.93C165.1,380.23,169.52,379.51,169.68,376.44C169.81,374.17,167.59,373.52,165.68,373.65C163.32,373.82,161.78,375.27,160.05,376.71C159.59,377.1,157.54,379.05,156.85,378.91L156.85,378.91C157.49,377.41,158.15,376.04,158.75,374.8C159.35,373.56,159.87,372.49,160.26,371.53C161.32,371.74,163.77,372.22,165.52,372.44C167.94,372.74,172.36,372.02,172.52,368.94C172.65,366.67,170.43,366.03,168.52,366.16C166.16,366.32,164.62,367.78,162.89,369.22C162.094505,369.961757,161.23443,370.631076,160.32,371.22C160.32,371.1,160.41,370.98,160.45,370.87C161.120586,368.909924,161.651907,366.904936,162.04,364.87C163.12,364.82,165.62,364.68,167.37,364.46C169.79,364.15,173.89,362.36,173.3,359.34C172.87,357.11,170.56,357.03,168.78,357.62C166.53,358.36,165.4,360.15,164.07,361.97C163.480175,362.883791,162.810916,363.743789,162.07,364.54C162.45,362.54,162.64,360.98,162.71,360.27C163.37,359.36,164.78,357.4,165.71,355.94C166.99,353.86,168.18,349.54,165.46,348.11C163.46,347.04,161.94,348.79,161.28,350.54C160.44,352.76,161.12,354.77,161.71,356.94C162.041216,357.91864,162.295325,358.921703,162.47,359.94C162.47,360.1,162.42,360.36,162.38,360.71L162.38,360.71L162.38,360.71C162.3,361.43,162.15,362.53,161.91,363.84C161.82,362.6,161.65,360.59,161.44,359.11C161.08,356.7,159.22,352.63,156.21,353.28C153.99,353.76,153.95,356.06,154.57,357.83C155.36,360.07,157.17,361.17,159.02,362.46C160.016207,363.049857,160.942149,363.751023,161.78,364.55C161.78,364.62,161.78,364.69,161.78,364.76C161.707805,364.806017,161.625366,364.833497,161.54,364.84L161.76,364.84C161.375648,366.834494,160.851011,368.799376,160.19,370.72C160.14,370.87,160.08,371.03,160.02,371.19C159.75,370.33,158.92,367.69,158.21,365.91C157.31,363.65,154.54,360.13,151.77,361.46C149.77,362.46,150.22,364.69,151.24,366.27C152.52,368.27,154.54,368.91,156.64,369.73C157.15,369.92,159.41,370.65,159.98,371.28L159.98,371.33C159.900597,371.343817,159.819403,371.343817,159.74,371.33L159.96,371.38C159.58,372.32,159.06,373.38,158.48,374.58C157.9,375.78,157.32,376.96,156.73,378.32C156.47,377.22,155.9,374.89,155.39,373.26C154.65,370.93,152.15,367.26,149.29,368.34C147.17,369.17,147.51,371.46,148.41,373.1C149.54,375.18,151.51,375.98,153.54,376.95C154.627234,377.370234,155.661055,377.917354,156.62,378.58C155.824909,380.367478,155.156592,382.208693,154.62,384.09C154.21,383.31,152.89,380.86,151.87,379.24C150.56,377.18,147.2,374.24,144.71,376.05C142.88,377.39,143.79,379.51,145.08,380.87C146.71,382.59,148.81,382.87,151.03,383.28C151.56,383.38,153.92,383.67,154.6,384.18C154.00936,386.367287,153.673795,388.615572,153.6,390.88L153.51,390.88L153.6,390.88C153.6,390.93,153.6,390.99,153.6,391.04C153.16,390.5,151.27,388.17,149.87,386.7C148.19,384.94,144.32,382.7,142.24,384.96C140.7,386.63,142,388.54,143.53,389.62C145.46,391,147.58,390.85,149.83,390.83C150.4,390.83,152.95,390.64,153.6,391.08C153.535601,394.166101,153.98507,397.241416,154.93,400.18L155.22,400.09C154.275755,397.165434,153.832845,394.102252,153.91,391.03C154.82,391.49,157.15,392.65,158.84,393.34C161.09,394.26,165.55,394.73,166.52,391.81C167.35,389.77,165.38,388.57,163.54,388.2Z" fill="rgb(255,255,255)" stroke="none" stroke-width="1"/><path id="ecQi375F6P19" d="M156.27,387.61C154.27,388.81,153.5,390.8,152.6,392.87C152.197234,393.975083,151.659853,395.026335,151,396C149.566712,394.286907,148.335282,392.414595,147.33,390.42C148.17,390.19,150.88,389.42,152.71,388.8C155.01,387.99,158.63,385.37,157.41,382.54C156.51,380.46,154.24,380.87,152.63,381.83C150.63,383.03,149.86,385.02,148.96,387.09C148.56248,388.249219,148.003657,389.346666,147.3,390.35C146.457549,388.64821,145.732523,386.890772,145.13,385.09L145.22,385.09L145.13,385.03C145.22,384.98,148.25,383.23,150.13,381.93C152.01,380.63,154.94,377.06,153.02,374.66C151.61,372.88,149.53,373.88,148.22,375.22C146.56,376.92,146.38,379.03,146.06,381.22C145.97,381.81,145.74,384.63,145.14,384.99L145.14,384.99C144.61,383.44,144.2,381.99,143.82,380.66C143.44,379.33,143.12,378.19,142.76,377.21C143.7,376.66,145.84,375.39,147.29,374.38C149.29,373,152.11,369.51,150.19,367.11C148.77,365.33,146.69,366.33,145.38,367.67C143.73,369.37,143.55,371.48,143.22,373.67C143.125355,374.754758,142.934607,375.828974,142.65,376.88C142.65,376.76,142.56,376.65,142.52,376.54C141.713281,374.633466,140.774328,372.785633,139.71,371.01C140.48,370.25,142.25,368.48,143.41,367.15C145.01,365.31,146.87,361.24,144.41,359.38C142.6,358.01,140.83,359.49,139.89,361.11C138.71,363.17,139.05,365.26,139.29,367.5C139.456654,368.565111,139.536915,369.641952,139.53,370.72C138.53,368.99,137.58,367.72,137.16,367.1C137.05,365.99,136.79,363.59,136.49,361.9C136.06,359.5,134.07,355.49,131.08,356.23C128.87,356.78,128.91,359.08,129.59,360.83C130.44,363.05,132.29,364.09,134.18,365.31C135.085724,365.835444,135.951411,366.427053,136.77,367.08L137.22,367.71L137.22,367.71C137.64,368.31,138.22,369.22,138.96,370.36C138.07,369.5,136.6,368.11,135.45,367.15C133.58,365.59,129.45,363.8,127.67,366.29C126.33,368.13,127.84,369.87,129.49,370.77C131.56,371.92,133.64,371.53,135.88,371.25C137.016373,371.031919,138.173536,370.941359,139.33,370.98C139.370273,371.03772,139.407007,371.097831,139.44,371.16C139.416815,371.241327,139.375825,371.316476,139.32,371.38L139.48,371.23C140.516363,372.973399,141.435076,374.784099,142.23,376.65L142.41,377.12C141.64,376.66,139.26,375.24,137.54,374.39C135.36,373.3,130.95,372.52,129.77,375.39C128.9,377.49,130.77,378.83,132.58,379.33C134.87,379.96,136.8,379.1,138.91,378.33C139.42,378.14,141.6,377.17,142.44,377.26L142.44,377.26C142.39932,377.333303,142.340861,377.395201,142.27,377.44L142.47,377.33C142.81,378.28,143.14,379.42,143.47,380.7C143.8,381.98,144.2,383.25,144.66,384.7C143.73,384.06,141.76,382.7,140.28,381.83C138.18,380.58,133.85,379.48,132.46,382.23C131.46,384.23,133.21,385.73,134.98,386.36C137.21,387.16,139.2,386.44,141.37,385.81C142.461253,385.403007,143.595178,385.121203,144.75,384.97C145.358352,386.827829,146.100288,388.639222,146.97,390.39C146.13,390.08,143.52,389.13,141.68,388.6C139.33,387.94,134.85,387.98,134.22,390.99C133.75,393.22,135.84,394.19,137.71,394.35C140.07,394.54,141.81,393.35,143.71,392.17C144.18,391.89,146.13,390.54,146.98,390.47C147.996845,392.495037,149.241572,394.397356,150.69,396.14L150.61,396.14L150.7,396.14L150.81,396.26C150.11,396.15,147.15,395.68,145.13,395.52C142.7,395.32,138.32,396.23,138.28,399.31C138.28,401.58,140.49,402.13,142.35,401.92C144.71,401.66,146.18,400.14,147.85,398.62C148.27,398.24,150.05,396.4,150.85,396.29C152.855102,398.635486,155.237886,400.629589,157.9,402.19L158.06,401.93C155.411974,400.378488,153.045295,398.390477,151.06,396.05C152.06,395.79,154.55,395.1,156.27,394.49C158.57,393.67,162.19,391.05,160.97,388.22C160.15,386.24,157.88,386.65,156.27,387.61Z" fill="rgb(255,255,255)" stroke="none" stroke-width="1"/></g><g id="ecQi375F6P110_to" transform="translate(254.880043,191.464184)"><g id="ecQi375F6P110" transform="translate(-254.070084,-190.441777)"><path id="ecQi375F6P111" d="M131.05,274.4C131.052424,265.347969,123.914245,257.90538,114.87,257.53L114.87,257.35L123.63,257.35C122.960555,252.636852,118.925454,249.134386,114.165,249.134386C109.404546,249.134386,105.369445,252.636852,104.7,257.35L113.47,257.35L113.47,257.53C106.107123,257.828997,99.789111,262.869629,97.862221,269.982185C95.935332,277.094741,98.844937,284.635261,105.05,288.61L102.82,295.22C102.721714,295.511734,102.743423,295.830572,102.880345,296.106291C103.017267,296.382011,103.258171,296.591996,103.55,296.69C103.669389,296.729421,103.794271,296.749672,103.92,296.75C104.398839,296.74232,104.825547,296.445995,105,296L107.09,289.78C111.472383,291.800903,116.510428,291.848225,120.93,289.91L122.93,296C123.034515,296.425321,123.369672,296.755516,123.796505,296.853676C124.223338,296.951836,124.669067,296.801225,124.948881,296.464289C125.228695,296.127353,125.294882,295.661544,125.12,295.26L123,288.78C127.999855,285.711196,131.047812,280.266524,131.05,274.4ZM114.17,287.84C106.748597,287.834478,100.736321,281.814742,100.740002,274.393338C100.743682,266.971934,106.761926,260.958165,114.183331,260.960004C121.604735,260.961843,127.619998,266.978595,127.62,274.4C127.608974,281.822039,121.592045,287.834494,114.17,287.84Z" fill="rgb(38,50,56)" stroke="none" stroke-width="1"/><path id="ecQi375F6P112" d="M114.17,272.84L114.11,272.84L109.63,265.75C109.492513,265.49858,109.226783,265.344305,108.940275,265.349567C108.653766,265.354829,108.39388,265.518757,108.265718,265.775056C108.137556,266.031356,108.162322,266.337623,108.33,266.57L112.8,273.66C112.679752,273.884854,112.614632,274.135054,112.61,274.39C112.612413,274.949047,112.913792,275.464063,113.4,275.74L113.4,281.65C113.444841,282.044122,113.778335,282.341824,114.175,282.341824C114.571665,282.341824,114.905159,282.044122,114.95,281.65L114.95,275.74C115.560419,275.386532,115.857705,274.667434,115.675082,273.986112C115.49246,273.30479,114.875373,272.830781,114.17,272.83Z" fill="rgb(38,50,56)" stroke="none" stroke-width="1"/><circle id="ecQi375F6P113" r="32.73" transform="matrix(0.975304 -0.220868 0.220868 0.975304 114.497451 273.664201)" fill="none" stroke="rgb(64,123,255)" stroke-width="2" stroke-linecap="round" stroke-linejoin="round"/><path id="ecQi375F6P114" d="M399.45,267L399.45,256.92C399.307872,255.555456,398.096476,254.557835,396.73,254.68L379.52,254.68C378.153524,254.557835,376.942128,255.555456,376.8,256.92L376.8,267C376.840458,267.899514,377.415592,268.687369,378.26,269C377.412198,269.308129,376.835136,270.098625,376.8,271L376.8,276.68C376.873201,277.718833,377.629655,278.581601,378.65,278.79C377.589483,280.035584,376.942917,281.580353,376.8,283.21L376.8,296.53C376.947169,297.890523,378.157027,298.882429,379.52,298.76L396.73,298.76C398.092973,298.882429,399.302831,297.890523,399.45,296.53L399.45,283.14C399.307083,281.510353,398.660517,279.965584,397.6,278.72C398.620345,278.511601,399.376799,277.648833,399.45,276.61L399.45,270.93C399.414864,270.028625,398.837802,269.238129,397.99,268.93C398.812212,268.62753,399.382627,267.873488,399.45,267Z" fill="rgb(38,50,56)" stroke="none" stroke-width="1"/><path id="ecQi375F6P115" d="M386.42,248.65L389.82,248.65C390.659473,248.65,391.34,249.330527,391.34,250.17L391.34,253.43L384.9,253.43L384.9,250.17C384.9,249.766871,385.060142,249.380253,385.345198,249.095198C385.630253,248.810142,386.016871,248.65,386.42,248.65Z" fill="rgb(38,50,56)" stroke="none" stroke-width="1"/><rect id="ecQi375F6P116" width="5" height="4.78" rx="0" ry="0" transform="matrix(1 0 0 1 385.63 252.03)" fill="rgb(38,50,56)" stroke="none" stroke-width="1"/><path id="ecQi375F6P117" d="M378.11,267.93C378.186311,268.698079,378.677823,269.362388,379.39,269.66C378.63718,269.968297,378.133184,270.687176,378.1,271.5L378.1,276.82C378.135182,277.776075,378.800685,278.592643,379.73,278.82C378.784763,280.005876,378.216964,281.448017,378.1,282.96L378.1,295.42C378.195928,296.658844,379.270048,297.590342,380.51,297.51L395.74,297.51C396.979952,297.590342,398.054072,296.658844,398.15,295.42L398.15,282.93C398.033036,281.418017,397.465237,279.975876,396.52,278.79C397.449315,278.562643,398.114818,277.746075,398.15,276.79L398.15,271.5C398.116816,270.687176,397.61282,269.968297,396.86,269.66C397.572177,269.362388,398.063689,268.698079,398.14,267.93L398.14,267.93C398.14,267.93,398.14,267.85,398.14,267.81L398.14,262.18C395.755854,263.067973,393.275444,263.672132,390.75,263.98C386.03,264.47,384.7,262.83,380.54,262.83C379.685739,262.839584,378.845991,263.052091,378.09,263.45L378.09,267.81C378.09,267.81,378.09,267.89,378.09,267.93Z" fill="rgb(255,255,255)" stroke="none" stroke-width="1"/><path id="ecQi375F6P118" d="M393.24,277.64C393.32477,279.593863,392.330686,281.436701,390.651308,282.438927C388.971931,283.441154,386.878069,283.441154,385.198692,282.438927C383.519314,281.436701,382.52523,279.593863,382.61,277.64C382.61,274.7,387.92,268.64,387.92,268.64C387.92,268.64,393.24,274.7,393.24,277.64Z" fill="rgb(38,50,56)" stroke="none" stroke-width="1"/><circle id="ecQi375F6P119" r="32.73" transform="matrix(0.707107 -0.707107 0.707107 0.707107 388.126197 273.671629)" fill="none" stroke="rgb(64,123,255)" stroke-width="2" stroke-linecap="round" stroke-linejoin="round"/><ellipse id="ecQi375F6P120" rx="12.9" ry="14.78" transform="matrix(1 0 0 1 137.53 198.67)" fill="rgb(38,50,56)" stroke="none" stroke-width="1"/><path id="ecQi375F6P121" d="M137.53,213.92C130.15,213.92,124.16,207.08,124.16,198.67C124.16,190.26,130.16,183.42,137.53,183.42C144.9,183.42,150.9,190.26,150.9,198.67C150.9,207.08,144.9,213.92,137.53,213.92ZM137.53,184.36C130.67,184.36,125.09,190.78,125.09,198.67C125.09,206.56,130.67,213,137.53,213C144.39,213,150,206.56,150,198.67C150,190.78,144.38,184.36,137.53,184.36Z" fill="rgb(255,255,255)" stroke="none" stroke-width="1"/><ellipse id="ecQi375F6P122" rx="12.9" ry="14.78" transform="matrix(1 0 0 1 133.31 198.67)" fill="rgb(38,50,56)" stroke="none" stroke-width="1"/><path id="ecQi375F6P123" d="M133.31,213.92C125.93,213.92,119.93,207.08,119.93,198.67C119.93,190.26,125.93,183.42,133.31,183.42C140.69,183.42,146.68,190.26,146.68,198.67C146.68,207.08,140.68,213.92,133.31,213.92ZM133.31,184.36C126.45,184.36,120.87,190.78,120.87,198.67C120.87,206.56,126.45,213,133.31,213C140.17,213,145.74,206.58,145.74,198.69C145.74,190.8,140.16,184.36,133.31,184.36Z" fill="rgb(255,255,255)" stroke="none" stroke-width="1"/><path id="ecQi375F6P124" d="M134.71,200.31L108.2,200.31L108.2,196.09L134.71,196.09C135.270423,196.087325,135.808665,196.308769,136.204948,196.705052C136.601231,197.101335,136.822675,197.639577,136.82,198.2L136.82,198.2C136.82,199.365321,135.875321,200.31,134.71,200.31Z" fill="rgb(38,50,56)" stroke="none" stroke-width="1"/><path id="ecQi375F6P125" d="M134.71,200.78L107.71,200.78L107.71,195.62L134.71,195.62C135.631745,195.62,136.483473,196.111745,136.944346,196.91C137.405218,197.708255,137.405218,198.691745,136.944346,199.49C136.483473,200.288255,135.631745,200.78,134.71,200.78ZM108.71,199.84L134.71,199.84C135.615747,199.84,136.35,199.105747,136.35,198.2C136.35,197.294253,135.615747,196.56,134.71,196.56L108.71,196.56Z" fill="rgb(255,255,255)" stroke="none" stroke-width="1"/><ellipse id="ecQi375F6P126" rx="12.9" ry="14.78" transform="matrix(1 0 0 1 114.54 198.67)" fill="rgb(38,50,56)" stroke="none" stroke-width="1"/><path id="ecQi375F6P127" d="M114.54,213.92C107.16,213.92,101.16,207.08,101.16,198.67C101.16,190.26,107.16,183.42,114.54,183.42C121.92,183.42,127.91,190.26,127.91,198.67C127.91,207.08,121.91,213.92,114.54,213.92ZM114.54,184.36C107.68,184.36,102.1,190.78,102.1,198.67C102.1,206.56,107.68,213,114.54,213C121.4,213,127,206.56,127,198.67C127,190.78,121.39,184.36,114.54,184.36Z" fill="rgb(255,255,255)" stroke="none" stroke-width="1"/><ellipse id="ecQi375F6P128" rx="12.9" ry="14.78" transform="matrix(1 0 0 1 110.31 198.67)" fill="rgb(38,50,56)" stroke="none" stroke-width="1"/><path id="ecQi375F6P129" d="M110.31,213.92C102.94,213.92,96.94,207.08,96.94,198.67C96.94,190.26,102.94,183.42,110.31,183.42C117.68,183.42,123.69,190.26,123.69,198.67C123.69,207.08,117.69,213.92,110.31,213.92ZM110.31,184.36C103.46,184.36,97.88,190.78,97.88,198.67C97.88,206.56,103.46,213,110.31,213C117.16,213,122.75,206.58,122.75,198.69C122.75,190.8,117.17,184.36,110.31,184.36Z" fill="rgb(255,255,255)" stroke="none" stroke-width="1"/><path id="ecQi375F6P130" d="M115,198.67C115,201.67,112.89,204.06,110.29,204.06C107.69,204.06,105.58,201.65,105.58,198.67C105.58,195.69,107.69,193.27,110.29,193.27C112.89,193.27,115,195.69,115,198.67Z" fill="rgb(38,50,56)" stroke="none" stroke-width="1"/><path id="ecQi375F6P131" d="M110.31,204.53C107.46,204.53,105.13,201.9,105.13,198.67C105.13,195.44,107.46,192.8,110.31,192.8C113.16,192.8,115.49,195.43,115.49,198.67C115.49,201.91,113.17,204.53,110.31,204.53ZM110.31,193.74C107.97,193.74,106.07,195.95,106.07,198.67C106.07,201.39,107.97,203.59,110.31,203.59C112.65,203.59,114.55,201.38,114.55,198.67C114.55,195.96,112.65,193.74,110.31,193.74Z" fill="rgb(255,255,255)" stroke="none" stroke-width="1"/><path id="ecQi375F6P132" d="M113.15,198.67C113.15,201.67,111.04,204.06,108.44,204.06C105.84,204.06,103.73,201.65,103.73,198.67C103.73,195.69,105.83,193.27,108.44,193.27C111.05,193.27,113.15,195.69,113.15,198.67Z" fill="rgb(38,50,56)" stroke="none" stroke-width="1"/><path id="ecQi375F6P133" d="M108.44,204.53C105.58,204.53,103.26,201.9,103.26,198.67C103.26,195.44,105.58,192.8,108.44,192.8C111.3,192.8,113.62,195.43,113.62,198.67C113.62,201.91,111.29,204.53,108.44,204.53ZM108.44,193.74C106.1,193.74,104.19,195.95,104.19,198.67C104.19,201.39,106.1,203.59,108.44,203.59C110.78,203.59,112.68,201.38,112.68,198.67C112.68,195.96,110.77,193.74,108.44,193.74Z" fill="rgb(255,255,255)" stroke="none" stroke-width="1"/><circle id="ecQi375F6P134" r="32.73" transform="matrix(0.397628 -0.917547 0.917547 0.397628 124.583788 197.889432)" fill="none" stroke="rgb(64,123,255)" stroke-width="2" stroke-linecap="round" stroke-linejoin="round"/><path id="ecQi375F6P135" d="M403.72,182.9C403.72,182.9,407.49,178.4,404.56,177.24C401.63,176.08,399,185.11,399,185.11C399,185.11,399.59,180.3,397.62,178.11C395.65,175.92,395.07,180.69,395.75,184.6C396.035786,186.33266,396.508547,188.029236,397.16,189.66C396.344288,188.797499,395.457864,188.004736,394.51,187.29C388.17,182.43,381.83,193.29,381.83,193.29C381.83,193.29,366.36,206.29,363.78,215.29C361.2,224.29,388.33,209.72,395.78,204.03C401.15,199.94,401.4,195.58,398.78,191.64C401.43,191.87,406.92,192.16,408.47,190.92C410.54,189.26,404.88,188.42,404.88,188.42C404.88,188.42,413.58,185.76,414.69,181.82C415.8,177.88,403.72,182.9,403.72,182.9Z" fill="rgb(38,50,56)" stroke="none" stroke-width="1"/><path id="ecQi375F6P136" d="M373.11,208.68C372.958916,208.724066,372.795903,208.694427,372.67,208.6C372.117163,208.203018,371.474786,207.948815,370.8,207.86C370.668088,207.85237,370.544849,207.791788,370.45824,207.691999C370.371631,207.592211,370.328993,207.461673,370.34,207.33C370.34763,207.198088,370.408212,207.074849,370.508001,206.98824C370.607789,206.901631,370.738327,206.858993,370.87,206.87C371.733972,206.966943,372.557735,207.287487,373.26,207.8C373.477949,207.961971,373.526783,208.268289,373.37,208.49C373.307797,208.581383,373.21596,208.648495,373.11,208.68Z" fill="rgb(255,255,255)" stroke="none" stroke-width="1"/><path id="ecQi375F6P137" d="M389.25,205.34C388.985289,205.418717,388.706015,205.27243,388.62,205.01C388.02533,202.866311,386.928363,200.895199,385.42,199.26C385.273339,199.058823,385.297028,198.780397,385.475567,198.606887C385.654105,198.433378,385.933094,198.417653,386.13,198.57C387.756674,200.309706,388.940089,202.415842,389.58,204.71C389.658717,204.974711,389.51243,205.253985,389.25,205.34Z" fill="rgb(255,255,255)" stroke="none" stroke-width="1"/><path id="ecQi375F6P138" d="M383.85,197.74C383.72223,197.794469,383.57777,197.794469,383.45,197.74C382.704795,197.272449,381.876281,196.953268,381.01,196.8C380.735704,196.763602,380.540468,196.51512,380.57,196.24C380.601391,195.967179,380.846943,195.770738,381.12,195.8C382.1279,195.971857,383.092588,196.33871,383.96,196.88C384.125082,196.982816,384.215568,197.172029,384.191974,197.365075C384.168379,197.55812,384.034986,197.71997,383.85,197.78Z" fill="rgb(255,255,255)" stroke="none" stroke-width="1"/><path id="ecQi375F6P139" d="M395.54,202.38C395.464102,202.395354,395.385898,202.395354,395.31,202.38C395.03904,202.32925,394.857451,202.072368,394.9,201.8C395.340491,199.527052,394.35985,197.213846,392.42,195.95C392.179756,195.809167,392.099167,195.500244,392.24,195.26C392.380833,195.019756,392.689756,194.939167,392.93,195.08C395.219249,196.56891,396.399625,199.279839,395.93,201.97C395.902941,202.176911,395.7453,202.342636,395.54,202.38Z" fill="rgb(255,255,255)" stroke="none" stroke-width="1"/><path id="ecQi375F6P140" d="M381.45,209.27C381.185289,209.348717,380.906015,209.20243,380.82,208.94C380.26626,207.575838,379.184162,206.49374,377.82,205.94C377.567053,205.833888,377.443346,205.546709,377.54,205.29C377.584869,205.165493,377.678195,205.064431,377.798741,205.009809C377.919288,204.955186,378.056804,204.951648,378.18,205C379.851214,205.663441,381.170299,206.993397,381.82,208.67C381.876974,208.936766,381.713946,209.201135,381.45,209.27Z" fill="rgb(255,255,255)" stroke="none" stroke-width="1"/><circle id="ecQi375F6P141" r="32.73" transform="matrix(0.973976 -0.226651 0.226651 0.973976 388.891769 197.860077)" fill="none" stroke="rgb(64,123,255)" stroke-width="2" stroke-linecap="round" stroke-linejoin="round"/><path id="ecQi375F6P142" d="M186.57,134.51C187.174292,134.338862,187.694172,133.950733,188.03,133.42C189.2,131.57,188.66,128.09,187.97,125.62C184.981065,121.471486,180.27554,118.898152,175.17,118.62C181.21,121.22,185.67,127.27,186.57,134.51Z" fill="rgb(38,50,56)" stroke="none" stroke-width="1"/><path id="ecQi375F6P143" d="M169.29,140.1C174.571411,140.884345,179.956146,140.608989,185.13,139.29C185.20543,138.59582,185.245482,137.898251,185.25,137.2Q185.25,136.69,185.25,136.2L185.2,136.2C181.47,136.2,178.08,133.86,174.5,131.4C172.784994,130.174807,171.009415,129.036701,169.18,127.99C166.525408,126.500637,163.523471,125.741526,160.48,125.79C158.45107,128.6369,157.357273,132.044096,157.35,135.54C158.51,136.71,161.77,139.1,169.29,140.1Z" fill="rgb(38,50,56)" stroke="none" stroke-width="1"/><path id="ecQi375F6P144" d="M190.19,129.81C190.335343,131.337971,190.018308,132.874369,189.28,134.22C188.695188,135.140755,187.766037,135.789001,186.7,136.02C186.7,136.41,186.7,136.8,186.7,137.2C186.7,137.6,186.7,138.27,186.64,138.8C188.243308,138.259389,189.759247,137.487945,191.14,136.51C191.14,136.19,191.14,135.88,191.14,135.57C191.160061,133.609413,190.838593,131.660305,190.19,129.81Z" fill="rgb(38,50,56)" stroke="none" stroke-width="1"/><path id="ecQi375F6P145" d="M186,142.94C187.111126,142.80029,188.23557,143.062779,189.17,143.68C190.051482,142.046618,190.659528,140.279906,190.97,138.45C189.565169,139.285918,188.068614,139.957019,186.51,140.45C186.392075,141.28982,186.221743,142.121444,186,142.94Z" fill="rgb(38,50,56)" stroke="none" stroke-width="1"/><path id="ecQi375F6P146" d="M183.62,145.18C182.73,145.61,181.75,146.18,180.69,146.8C178,148.37,174.96,150.15,171.56,150.69C170.785512,150.807671,170.003374,150.867836,169.22,150.87C168.321819,150.86813,167.425366,150.791196,166.54,150.64C170.261376,152.561174,174.56666,153.021308,178.61,151.93C180.786029,150.10383,182.502206,147.791616,183.62,145.18Z" fill="rgb(38,50,56)" stroke="none" stroke-width="1"/><path id="ecQi375F6P147" d="M185.77,144.44L185.49,144.5C184.700409,146.727355,183.525915,148.798796,182.02,150.62C184.585306,149.302073,186.771157,147.350297,188.37,144.95C187.604485,144.443819,186.670011,144.260519,185.77,144.44Z" fill="rgb(38,50,56)" stroke="none" stroke-width="1"/><path id="ecQi375F6P148" d="M169.86,126.67C171.737969,127.740051,173.560321,128.904887,175.32,130.16C178.81,132.56,181.86,134.66,185.09,134.69C184.09,126.52,178.21,119.98,170.76,118.98C167.234941,119.734989,164.041146,121.591032,161.64,124.28C164.527212,124.434663,167.339968,125.252483,169.86,126.67Z" fill="rgb(38,50,56)" stroke="none" stroke-width="1"/><path id="ecQi375F6P149" d="M171.33,149.22C174.45,148.73,177.33,147.02,179.93,145.52C181.322766,144.633508,182.795939,143.880181,184.33,143.27C184.569076,142.495285,184.762738,141.707279,184.91,140.91C181.855381,141.669376,178.717516,142.042292,175.57,142.02C173.406073,142.013804,171.244842,141.866827,169.1,141.58C162.87,140.75,159.35,138.99,157.45,137.58C157.919413,141.477465,159.729432,145.090433,162.57,147.8C165.283178,149.135935,168.333735,149.630432,171.33,149.22Z" fill="rgb(38,50,56)" stroke="none" stroke-width="1"/><circle id="ecQi375F6P150" r="32.73" transform="matrix(0.973976 -0.226651 0.226651 0.973976 174.276414 135.572941)" fill="none" stroke="rgb(64,123,255)" stroke-width="2" stroke-linecap="round" stroke-linejoin="round"/><path id="ecQi375F6P151" d="M355.2,136.71C355.2,145.49,348.02,154.81,341.14,154.81C339.46,154.81,335.07,154.81,333.51,154.21C324.99,150.92,321.7,142.76,321.7,135.66C321.7,131.98,322.8,127.96,325.7,125.5C329.57,122.25,333.83,124.3,338.32,124.3C342.23,124.3,347.71,122.7,350.69,124.89C354.47,127.67,355.2,132.34,355.2,136.71Z" fill="rgb(38,50,56)" stroke="none" stroke-width="1"/><path id="ecQi375F6P152" d="M337.89,125.49C338.560762,123.405271,339.345271,121.358869,340.24,119.36C340.87305,118.100605,341.864702,117.05676,343.09,116.36L344.88,117.11C343.578436,117.973222,342.418078,119.032386,341.44,120.25C340.202864,122.242556,339.151763,124.344757,338.3,126.53" fill="rgb(38,50,56)" stroke="none" stroke-width="1"/><path id="ecQi375F6P153" d="M339.05,122.8C339.083126,121.884831,338.696436,121.00465,338,120.41C336.141711,119.169026,334.192904,118.069271,332.17,117.12C330.147096,116.170729,331.72,119.66,333.17,121.12C334.62,122.58,339.05,122.8,339.05,122.8Z" fill="rgb(38,50,56)" stroke="none" stroke-width="1"/><path id="ecQi375F6P154" d="M350.59,130.81C350.03,131.81,348.32,131.87,346.78,130.98C345.24,130.09,344.44,128.57,345.01,127.59C345.58,126.61,347.28,126.53,348.83,127.42C350.38,128.31,351.16,129.83,350.59,130.81Z" fill="rgb(255,255,255)" stroke="none" stroke-width="1"/><circle id="ecQi375F6P155" r="32.73" transform="matrix(0.352658 -0.935752 0.935752 0.352658 338.425777 135.571561)" fill="none" stroke="rgb(64,123,255)" stroke-width="2" stroke-linecap="round" stroke-linejoin="round"/><g id="ecQi375F6P156" clip-path="url(#ecQi375F6P168)"><g id="ecQi375F6P157"><path id="ecQi375F6P158" d="M281.49,106.67L281.34,106.59C281.24,106.59,271.17,101.15,268.78,100.67C265.874212,100.360614,262.949032,100.273694,260.03,100.41L258.93,100.41C257.41,100.41,256.15,100.72,255.99,101.12C255.93,101.3,256.09,101.7,256.76,102.31C258.76,104.13,262.64,104.41,264.5,104.55C264.93714,104.558214,265.372477,104.608445,265.8,104.7C266.824825,105.335477,267.7344,106.14023,268.49,107.08L269.11,107.78L243.2,110.44C242.531735,110.475899,242.019102,111.046735,242.055,111.715C242.090899,112.383265,242.661735,112.895899,243.33,112.86L243.33,112.86L262.83,112.56L240.9,117.47C240.62724,117.529099,240.391588,117.699494,240.25,117.94C240.099111,118.177864,240.055541,118.468334,240.13,118.74C240.268937,119.214035,240.716891,119.529262,241.21,119.5L257.62,118.11L257.8,119.05L243.13,123.34C242.567446,123.528416,242.240547,124.113849,242.375273,124.691618C242.51,125.269387,243.062129,125.649845,243.65,125.57L257.83,123.09L258.08,124.02L249.55,127.13C249.392747,127.193159,249.279291,127.333088,249.25,127.5C249.228178,127.670366,249.301027,127.839068,249.44,127.94C249.52769,128.008661,249.640035,128.037653,249.75,128.02C252.12,127.78,264.03,126.52,266.02,126.08C268.19,125.6,279.51,120.93,279.62,120.88L279.79,120.88L302.54,120.39L297.36,103.66L297.31,103.66Z" fill="rgb(38,50,56)" stroke="none" stroke-width="1"/><path id="ecQi375F6P159" d="M246.25,121.45L251.01,120.06L251.3,119.63L247,120Z" fill="rgb(38,50,56)" stroke="none" stroke-width="1"/><polygon id="ecQi375F6P160" points="251.47,119.62 251.36,119.95 252.94,119.49 251.47,119.62" fill="rgb(38,50,56)" stroke="none" stroke-width="1"/><path id="ecQi375F6P161" d="M244.81,113.82C244.43,114.4,244.12,114.82,243.92,115.15C243.72,115.48,243.61,115.66,243.47,115.93L253.47,113.69Z" fill="rgb(38,50,56)" stroke="none" stroke-width="1"/><path id="ecQi375F6P162" d="M248.65,116.64L247.48,119L257.64,118.14L257.82,119.08L250.99,121.08L249.84,124.52L255.04,123.61C256.5,122.13,257.85,120.61,257.85,120.61C257.14883,121.50247,256.513806,122.444979,255.95,123.43L257.85,123.1L258.1,124.03L255.54,124.96C255.555064,125.007302,255.578802,125.051386,255.61,125.09C256.36,125.84,257.61,126.58,258.35,125.84C259.09,125.1,265.07,117.38,266.35,116.63C269.422541,114.887494,272.336957,112.87986,275.06,110.63C275.89,109.92,277.63,108.08,279.79,105.71C276.79,104.17,270.63,100.99,268.79,100.63C265.884212,100.320614,262.959032,100.233694,260.04,100.37L258.94,100.37C257.42,100.37,256.16,100.68,256,101.08C255.94,101.26,256.1,101.66,256.77,102.27C258.77,104.09,262.65,104.37,264.51,104.51C264.94714,104.518214,265.382477,104.568445,265.81,104.66C266.834825,105.295477,267.7444,106.10023,268.5,107.04L269.12,107.74L247.33,110C246.65,111,246.01,112,245.46,112.81L262.85,112.54L243,117C242.692283,117.780808,242.441624,118.582913,242.25,119.4L246.31,119.06C247.47,117.83,248.65,116.64,248.65,116.64Z" fill="rgb(38,50,56)" stroke="none" stroke-width="1"/><path id="ecQi375F6P163" d="M243.92,121.87C244.327227,121.250416,244.792672,120.671122,245.31,120.14L242.01,120.42L241.93,120.87C241.93,120.87,243.42,122.86,243.92,121.87Z" fill="rgb(38,50,56)" stroke="none" stroke-width="1"/><path id="ecQi375F6P164" d="M248.4,101.47C250.044579,101.128835,251.720429,100.96125,253.4,100.97L248,109L267.11,107C266.635132,106.455246,266.08252,105.983504,265.47,105.6C265.119097,105.5446,264.765073,105.511202,264.41,105.5C262.29,105.34,258.34,105.05,256.1,103.01C255.75,102.7,254.7,101.74,255.1,100.76C255.54,99.61,257.69,99.44,258.93,99.44L260.01,99.44C263.012716,99.299118,266.021848,99.392736,269.01,99.72C271.01,100.12,277.57,103.49,280.46,105.01C287.32,97.41,297.7,85.29,297.7,85.29L281,79.08C280.25,79.08,272.54,94.25,272.54,94.25C272.54,94.25,259.11,92.25,257.37,92.51C255.63,92.77,247.91,96.99,246.17,97.74C244.43,98.49,242.44,99.23,243.43,100.23C244.797181,101.406367,246.640454,101.866258,248.4,101.47Z" fill="rgb(38,50,56)" stroke="none" stroke-width="1"/><path id="ecQi375F6P165" d="M252,126.25L251.3,126.51C251.487531,126.486521,251.669948,126.432472,251.84,126.35Z" fill="rgb(38,50,56)" stroke="none" stroke-width="1"/><path id="ecQi375F6P166" d="M252.7,125L249.83,125.5C249.918979,125.653155,250.022812,125.797182,250.14,125.93Z" fill="rgb(38,50,56)" stroke="none" stroke-width="1"/><path id="ecQi375F6P167" d="M250.16,121.31L245.66,122.62L245.41,123.11C245.498841,123.824935,245.683847,124.524594,245.96,125.19L247.58,124.9C248.32,124,249.33,122.51,250.16,121.31Z" fill="rgb(38,50,56)" stroke="none" stroke-width="1"/></g><clipPath id="ecQi375F6P168"><circle id="ecQi375F6P169" r="27.9" transform="matrix(1 0 0 1 263.28 108.9)" fill="none" stroke="none" stroke-width="1"/></clipPath></g><path id="ecQi375F6P170" d="M255.12,92.29C255.12,92.29,251.58,84.74,248.95,87.29C246.15,90.08,255.12,92.29,255.12,92.29Z" fill="rgb(38,50,56)" stroke="none" stroke-width="1"/><path id="ecQi375F6P171" d="M266,92.29C266,92.29,269.54,84.74,272.18,87.29C275,90.08,266,92.29,266,92.29Z" fill="rgb(38,50,56)" stroke="none" stroke-width="1"/><path id="ecQi375F6P172" d="M256.85,91.75C256.583294,91.744556,256.369944,91.526762,256.37,91.26L256.37,74.7C256.375312,74.437135,256.587135,74.225312,256.85,74.22C256.977304,74.22,257.099394,74.270571,257.189411,74.360589C257.279429,74.450606,257.33,74.572696,257.33,74.7L257.33,91.26C257.332689,91.389028,257.283307,91.513702,257.192996,91.605894C257.102686,91.698086,256.979056,91.750028,256.85,91.75Z" fill="rgb(38,50,56)" stroke="none" stroke-width="1"/><path id="ecQi375F6P173" d="M260.37,97.77C260.242696,97.77,260.120606,97.719429,260.030589,97.629411C259.940571,97.539394,259.89,97.417304,259.89,97.29L259.89,93.77C259.89,93.642696,259.940571,93.520606,260.030589,93.430589C260.120606,93.340571,260.242696,93.29,260.37,93.29C260.632865,93.295312,260.844688,93.507135,260.85,93.77L260.85,97.29C260.844688,97.552865,260.632865,97.764688,260.37,97.77Z" fill="rgb(255,255,255)" stroke="none" stroke-width="1"/><path id="ecQi375F6P174" d="M260.37,94.26C260.240944,94.260028,260.117314,94.208086,260.027004,94.115894C259.936693,94.023702,259.887311,93.899028,259.89,93.77L259.89,84.77C259.887244,84.641871,259.936929,84.518173,260.027551,84.427551C260.118173,84.336929,260.241871,84.287244,260.37,84.29C260.497304,84.29,260.619394,84.340571,260.709411,84.430589C260.799429,84.520606,260.85,84.642696,260.85,84.77L260.85,93.77C260.850056,94.036762,260.636706,94.254556,260.37,94.26Z" fill="rgb(38,50,56)" stroke="none" stroke-width="1"/><path id="ecQi375F6P175" d="M264.63,96.26C264.502696,96.26,264.380606,96.209429,264.290589,96.119411C264.200571,96.029394,264.15,95.907304,264.15,95.78L264.15,81C264.149944,80.733238,264.363294,80.515444,264.63,80.51C264.759056,80.509972,264.882686,80.561914,264.972996,80.654106C265.063307,80.746298,265.112689,80.870972,265.11,81L265.11,95.8C265.107376,95.924661,265.055323,96.04317,264.9653,96.129443C264.875276,96.215716,264.75466,96.262681,264.63,96.26Z" fill="rgb(38,50,56)" stroke="none" stroke-width="1"/><path id="ecQi375F6P176" d="M264.63,80C264.502696,80,264.380606,79.949429,264.290589,79.859411C264.200571,79.769394,264.15,79.647304,264.15,79.52L264.15,75.71C264.149944,75.443238,264.363294,75.225444,264.63,75.22C264.759056,75.219972,264.882686,75.271914,264.972996,75.364106C265.063307,75.456298,265.112689,75.580972,265.11,75.71L265.11,79.47C265.127622,79.606435,265.084584,79.74374,264.992238,79.845706C264.899892,79.947672,264.767508,80.00406,264.63,80Z" fill="rgb(38,50,56)" stroke="none" stroke-width="1"/><path id="ecQi375F6P177" d="M252.34,103.31C250.363746,102.392615,248.102925,102.302614,246.06,103.06C242.55,104.31,244.06,106.82,246.31,106.32C248.56,105.82,252.34,103.31,252.34,103.31Z" fill="rgb(38,50,56)" stroke="none" stroke-width="1"/><path id="ecQi375F6P178" d="M253.59,108.81C253.324903,108.81,253.11,108.595097,253.11,108.33L253.11,103.81C253.115312,103.547135,253.327135,103.335312,253.59,103.33C253.855097,103.33,254.07,103.544903,254.07,103.81L254.07,108.33C254.072756,108.458129,254.023071,108.581827,253.932449,108.672449C253.841827,108.763071,253.718129,108.812756,253.59,108.81Z" fill="rgb(255,255,255)" stroke="none" stroke-width="1"/><circle id="ecQi375F6P179" r="32.73" transform="matrix(0.707107 -0.707107 0.707107 0.707107 261.830255 109.256718)" fill="none" stroke="rgb(64,123,255)" stroke-width="2" stroke-linecap="round" stroke-linejoin="round"/></g></g><g id="ecQi375F6P180"><ellipse id="ecQi375F6P181" rx="87.57" ry="13.5" transform="matrix(1 0 0 1 241 425.5)" fill="rgb(38,50,56)" stroke="none" stroke-width="1"/></g><g id="ecQi375F6P182"><path id="ecQi375F6P183" d="M226.48,278.49C224.979758,284.934141,223.844618,291.457859,223.08,298.03C221.64,309.74,224.02,328.03,224.02,328.03C224.02,328.03,207.02,319.31,197.77,320.46C188.52,321.61,151.27,334.83,146.36,334.37C146.36,334.37,142.69,340.88,146.26,340.79C151.14,340.67,203.15,341.79,211.56,342.74C220.15,343.74,232.32,346.34,236.56,342.46C239.46,339.83,250.07,306.83,250.23,296.01C250.284093,289.926189,250.711564,283.851433,251.51,277.82" fill="rgb(255,255,255)" stroke="rgb(38,50,56)" stroke-width="1" stroke-linecap="round" stroke-linejoin="round"/><path id="ecQi375F6P184" d="M223.07,298C221.64,309.71,224.07,328,224.07,328C224.07,328,207.07,319.28,197.82,320.43C194.546156,320.994196,191.310062,321.75897,188.13,322.72C185.81,327.23,183.74,334.14,186.97,341.58C198.25,341.92,208.3,342.32,211.61,342.71C220.2,343.71,232.37,346.31,236.61,342.43C239.51,339.8,250.12,306.8,250.28,295.98C250.334093,289.896189,250.761564,283.821433,251.56,277.79L226.5,278.42C224.990788,284.877261,223.845649,291.414234,223.07,298Z" fill="rgb(38,50,56)" stroke="rgb(38,50,56)" stroke-width="1" stroke-linecap="round" stroke-linejoin="round"/><path id="ecQi375F6P185" d="M239.28,283.35L233.71,286.16C233.71,286.16,231.85,285.96,235.38,281.08" fill="rgb(255,255,255)" stroke="rgb(38,50,56)" stroke-width="1" stroke-linecap="round" stroke-linejoin="round"/><path id="ecQi375F6P186" d="M257.94,167.14C257.94,167.14,252.34,163.26,242.88,162.83C233.42,162.4,227,175.31,228.25,183.49C229.5,191.67,229.11,200.27,217.92,198.98C206.73,197.69,192.97,198.98,189.92,210.98C186.87,222.98,200.24,238.09,215.3,232.5C230.36,226.91,226.73,215.85,233.8,213.56C240.87,211.27,248,211.41,248.86,202.81C249.72,194.21,244.13,186.46,248,178.71C250.316453,174.097924,253.729662,170.125004,257.94,167.14Z" fill="rgb(38,50,56)" stroke="rgb(38,50,56)" stroke-width="1" stroke-linecap="round" stroke-linejoin="round"/><path id="ecQi375F6P187" d="M251.82,168.9C251.82,168.9,240.08,166.62,236.16,176.4C232.24,186.18,241.06,194.66,238.16,204.4C235.26,214.14,224.16,221.68,215.01,218.4C205.86,215.12,197,212,196.38,217.17C195.76,222.34,202.57,223.69,204.2,222.71C205.83,221.73,203.55,219.78,203.55,219.78" fill="none" stroke="rgb(255,255,255)" stroke-width="1" stroke-linecap="round" stroke-linejoin="round"/><path id="ecQi375F6P188" d="M214.23,207.1C212.867157,206.742268,211.474868,206.507988,210.07,206.4" fill="none" stroke="rgb(255,255,255)" stroke-width="1" stroke-linecap="round" stroke-linejoin="round"/><path id="ecQi375F6P189" d="M242.69,167.6C242.69,167.6,231.6,169.6,231.6,181.29C231.6,192.98,237.14,200.21,232.25,207.71C228.86,212.91,224.25,210.59,218.43,208.46" fill="none" stroke="rgb(255,255,255)" stroke-width="1" stroke-linecap="round" stroke-linejoin="round"/><path id="ecQi375F6P190" d="M264.35,178.74C264.35,178.74,264.74,185.03,263.35,188.74C261.96,192.45,255.75,198.38,256.11,201.54C256.47,204.7,265.53,211.2,268.42,210.11C271.31,209.02,273.72,192.6,273.72,192.6C273.72,192.6,268.64,180.92,264.35,178.74Z" fill="rgb(255,255,255)" stroke="rgb(38,50,56)" stroke-width="1" stroke-linecap="round" stroke-linejoin="round"/><path id="ecQi375F6P191" d="M269.42,190.17C271.28,193.65,272.87,196.54,277.01,197.3C282.68,198.3,284.77,191,285.53,183.6C285.718087,183.681034,285.916743,183.734907,286.12,183.76C287.555904,183.974214,289.010212,183.512822,290.06,182.51C290.52,182.04,289.82,181.14,288.9,180.17C286.2,177.31,285.97,175.1,286,171.17C286.089856,169.411491,285.941852,167.6489,285.56,165.93C285.457747,165.556577,285.334212,165.18931,285.19,164.83C281.06,154.73,260.39,154.36,259.27,166.83C258.949504,171.240214,259.465217,175.671273,260.79,179.89" fill="rgb(255,255,255)" stroke="none" stroke-width="1"/><g id="ecQi375F6P192" clip-path="url(#ecQi375F6P196)"><g id="ecQi375F6P193"><path id="ecQi375F6P194" d="M286,171.2C286.089856,169.441491,285.941852,167.6789,285.56,165.96C285.457747,165.586577,285.334212,165.21931,285.19,164.86C281.06,154.76,260.39,154.39,259.27,166.86C258.947856,171.249808,259.460222,175.660908,260.78,179.86C269.018952,177.138533,277.476822,175.131128,286.06,173.86C286,173.05,286,172.18,286,171.2Z" fill="rgb(64,123,255)" stroke="none" stroke-width="1"/><path id="ecQi375F6P195" d="M286,171.2C286.089856,169.441491,285.941852,167.6789,285.56,165.96C285.457747,165.586577,285.334212,165.21931,285.19,164.86C281.06,154.76,260.39,154.39,259.27,166.86C258.947856,171.249808,259.460222,175.660908,260.78,179.86C269.018952,177.138533,277.476822,175.131128,286.06,173.86C286,173.05,286,172.18,286,171.2Z" opacity="0.5" fill="rgb(255,255,255)" stroke="none" stroke-width="1"/></g><clipPath id="ecQi375F6P196"><path id="ecQi375F6P197" d="M269.42,190.17C271.28,193.65,272.87,196.54,277.01,197.3C282.68,198.3,284.77,191,285.53,183.6C285.718087,183.681034,285.916743,183.734907,286.12,183.76C287.555904,183.974214,289.010212,183.512822,290.06,182.51C290.52,182.04,289.82,181.14,288.9,180.17C286.2,177.31,285.97,175.1,286,171.17C286.089856,169.411491,285.941852,167.6489,285.56,165.93C285.457747,165.556577,285.334212,165.18931,285.19,164.83C281.06,154.73,260.39,154.36,259.27,166.83C258.949504,171.240214,259.465217,175.671273,260.79,179.89" fill="rgb(255,255,255)" stroke="rgb(38,50,56)" stroke-width="1" stroke-linecap="round" stroke-linejoin="round"/></clipPath></g><path id="ecQi375F6P198" d="M269.42,190.17C271.28,193.65,272.87,196.54,277.01,197.3C282.68,198.3,284.77,191,285.53,183.6C285.718087,183.681034,285.916743,183.734907,286.12,183.76C287.555904,183.974214,289.010212,183.512822,290.06,182.51C290.52,182.04,289.82,181.14,288.9,180.17C286.2,177.31,285.97,175.1,286,171.17C286.089856,169.411491,285.941852,167.6489,285.56,165.93C285.457747,165.556577,285.334212,165.18931,285.19,164.83C281.06,154.73,260.39,154.36,259.27,166.83C258.949504,171.240214,259.465217,175.671273,260.79,179.89" fill="none" stroke="rgb(38,50,56)" stroke-width="1" stroke-linecap="round" stroke-linejoin="round"/><path id="ecQi375F6P199" d="M283.14,175.78C283.14,176.54,282.93,177.17,282.57,177.19C282.21,177.21,281.89,176.61,281.84,175.85C281.79,175.09,282.05,174.46,282.41,174.44C282.77,174.42,283.1,175,283.14,175.78Z" fill="rgb(38,50,56)" stroke="none" stroke-width="1"/><path id="ecQi375F6P1100" d="M283,186.61C283,186.61,279.93,186.81,279.31,184.56" fill="none" stroke="rgb(38,50,56)" stroke-width="1" stroke-linecap="round" stroke-linejoin="round"/><path id="ecQi375F6P1101" d="M284,162.84C278.13,154.78,259.12,160.67,258.08,172.21C257.56,178.04,257.34,185.87,262.94,186.78C264.67,181.35,270.26,181.2,270.08,178.41C269.83,174.27,278.08,174.41,276.98,168.15C276.11,162.72,280.42,166,284,162.84Z" fill="rgb(38,50,56)" stroke="rgb(38,50,56)" stroke-width="1" stroke-linecap="round" stroke-linejoin="round"/><path id="ecQi375F6P1102" d="M258.28,176.84L287.08,167.13C287.08,167.13,283.32,157.13,278.44,154.57C273.56,152.01,261.96,154.57,258,159.65C254.04,164.73,256.41,168.41,258.28,176.84Z" fill="rgb(64,123,255)" stroke="none" stroke-width="1"/><g id="ecQi375F6P1103" clip-path="url(#ecQi375F6P1106)"><g id="ecQi375F6P1104"><path id="ecQi375F6P1105" d="M263.24,162.53C263.56,157.75,268.55,154.62,269.92,153.85C265.25,154.58,260.32,156.68,258,159.65C254,164.73,256.41,168.41,258.28,176.84L267.16,173.84C265.51,170.6,263,166,263.24,162.53Z" opacity="0.2" fill="rgb(0,0,0)" stroke="none" stroke-width="1"/></g><clipPath id="ecQi375F6P1106"><path id="ecQi375F6P1107" d="M258.28,176.84L287.08,167.13C287.08,167.13,283.32,157.13,278.44,154.57C273.56,152.01,261.96,154.57,258,159.65C254.04,164.73,256.41,168.41,258.28,176.84Z" fill="rgb(64,123,255)" stroke="rgb(38,50,56)" stroke-width="1" stroke-linecap="round" stroke-linejoin="round"/></clipPath></g><path id="ecQi375F6P1108" d="M258.28,176.84L287.08,167.13C287.08,167.13,283.32,157.13,278.44,154.57C273.56,152.01,261.96,154.57,258,159.65C254.04,164.73,256.41,168.41,258.28,176.84Z" fill="none" stroke="rgb(38,50,56)" stroke-width="1" stroke-linecap="round" stroke-linejoin="round"/><path id="ecQi375F6P1109" d="M277.46,170.6C277.46,170.6,289.86,170.17,295.97,170.8C302.08,171.43,298.29,168.3,287.08,167.13C287.08,167.13,279.6,169.79,277.46,170.6Z" fill="rgb(255,255,255)" stroke="rgb(38,50,56)" stroke-width="1" stroke-linecap="round" stroke-linejoin="round"/><path id="ecQi375F6P1110" d="M259.3,194.32C259.3,194.32,270.92,202.82,273.42,210.49C276.54,220.08,275.23,227.82,272.24,236.49C269.25,245.16,265.34,245.56,263,254.78C260.42,264.96,259.91,284.85,254.9,293.92C245.6,310.77,219.61,295.73,219.17,279.57C218.69,262.1,234.86,251.67,236.73,242.89C238.73,233.37,236.52,220.19,240.92,211.27C245.32,202.35,253.73,194,259.3,194.32Z" fill="rgb(38,50,56)" stroke="rgb(38,50,56)" stroke-width="1" stroke-linecap="round" stroke-linejoin="round"/><path id="ecQi375F6P1111" d="M255.88,202.64C252.909911,203.457971,250.25694,205.155733,248.27,207.51C243.42,213.29,237.55,236.04,236.36,239.51C234.61,244.65,231.56,263.15,232.79,263.51C234.02,263.87,241.68,263.63,254.93,264.9C268.18,266.17,292.98,259.2,292.98,259.2C292.98,259.2,297.07,261.95,300.63,260.87C301.09,260.73,301.5,260.59,301.88,260.46C302.979157,260.074759,303.90934,259.31788,304.51,258.32C304.753381,257.943164,304.938782,257.53191,305.06,257.1C305.261591,256.451884,305.289181,255.762147,305.14,255.1C305.118448,253.656439,304.776909,252.235638,304.14,250.94C303.29,249.49,302.75,250.29,301.57,249.66C300.088788,249.009991,298.438988,248.848864,296.86,249.2C295.86,249.61,292.35,254.41,292.35,254.41C292.35,254.41,277.79,256.1,265,252C253.45,248.31,250.7,248.33,250.7,248.33C250.7,248.33,261.84,222.74,265.7,215.58" fill="rgb(64,123,255)" stroke="rgb(38,50,56)" stroke-width="1" stroke-linecap="round" stroke-linejoin="round"/><path id="ecQi375F6P1112" d="M300.63,260.94L301.54,260.64C302.945804,260.201866,304.114497,259.213526,304.78,257.9C304.904778,257.669923,304.998911,257.424506,305.06,257.17C305.261591,256.521884,305.289181,255.832147,305.14,255.17C305.118448,253.726439,304.776909,252.305638,304.14,251.01C303.29,249.56,302.75,250.36,301.57,249.73C300.088788,249.079991,298.438988,248.918864,296.86,249.27C295.86,249.68,292.35,254.48,292.35,254.48C288.992419,254.783621,285.618756,254.870468,282.25,254.74L282.38,261.87C288.54,260.52,293.02,259.26,293.02,259.26C293.02,259.26,297.07,262,300.63,260.94Z" fill="rgb(255,255,255)" stroke="rgb(38,50,56)" stroke-width="1" stroke-linecap="round" stroke-linejoin="round"/><path id="ecQi375F6P1113" d="M301.53,249.74C301.53,249.74,302.76,253.14,302,254.93C301.24,256.72,298.68,252.38,298.68,252.38" fill="none" stroke="rgb(38,50,56)" stroke-width="1" stroke-linecap="round" stroke-linejoin="round"/><path id="ecQi375F6P1114" d="M300.47,258L299.96,254.68C299.96,254.68,295.88,259.02,294.09,257.23" fill="none" stroke="rgb(38,50,56)" stroke-width="1" stroke-linecap="round" stroke-linejoin="round"/><path id="ecQi375F6P1115" d="M278.12,226C277.63,223.74,276.99,221.5,276.3,219.27C275.38,216.34,274.36,213.43,273.42,210.54C273.197053,209.881153,272.926335,209.239449,272.61,208.62L272.61,207.14C272.61,205.54,274.48,202.61,274.48,202.61C273.090265,201.064249,271.575104,199.636051,269.95,198.34C266.49,195.41,260.36,191.42,260.36,191.42L257.48,194.56C252.02,195.79,244.86,203.37,240.92,211.37C236.52,220.29,238.77,233.47,236.73,242.99C235.67,247.99,230.01,253.48,225.4,260.5C236.126029,266.625289,248.01985,270.427496,260.31,271.66C261.17,265.36,261.9,259.24,263,254.88C264.184978,250.340978,266.476654,246.166486,269.67,242.73C274.28,237.7,279.79,233.67,278.12,226Z" fill="rgb(64,123,255)" stroke="none" stroke-width="1"/><g id="ecQi375F6P1116" clip-path="url(#ecQi375F6P1119)"><g id="ecQi375F6P1117"><path id="ecQi375F6P1118" d="M241.42,265C241.42,263.52,251.78,252.06,254,249.1C256.22,246.14,244.75,248.36,242.9,248.36C241.05,248.36,248.08,239.85,252.9,230.98C257.72,222.11,256.59,219.88,256.59,219.88L244,214.31C244,214.31,242,215.26,239.08,216.68C237.2,225.01,238.38,235.19,236.72,242.94C235.66,247.94,230,253.43,225.39,260.45C230.376344,263.329494,235.652115,265.675771,241.13,267.45C241.281578,266.640773,241.378465,265.822253,241.42,265Z" opacity="0.2" fill="rgb(0,0,0)" stroke="none" stroke-width="1"/></g><clipPath id="ecQi375F6P1119"><path id="ecQi375F6P1120" d="M278.12,226C277.63,223.74,276.99,221.5,276.3,219.27C275.38,216.34,274.36,213.43,273.42,210.54C273.197053,209.881153,272.926335,209.239449,272.61,208.62L272.61,207.14C272.61,205.54,274.48,202.61,274.48,202.61C273.090265,201.064249,271.575104,199.636051,269.95,198.34C266.49,195.41,260.36,191.42,260.36,191.42L257.48,194.56C252.02,195.79,244.86,203.37,240.92,211.37C236.52,220.29,238.77,233.47,236.73,242.99C235.67,247.99,230.01,253.48,225.4,260.5C236.126029,266.625289,248.01985,270.427496,260.31,271.66C261.17,265.36,261.9,259.24,263,254.88C264.184978,250.340978,266.476654,246.166486,269.67,242.73C274.28,237.7,279.79,233.67,278.12,226Z" fill="rgb(64,123,255)" stroke="rgb(38,50,56)" stroke-width="1" stroke-linecap="round" stroke-linejoin="round"/></clipPath></g><path id="ecQi375F6P1121" d="M278.12,226C277.63,223.74,276.99,221.5,276.3,219.27C275.38,216.34,274.36,213.43,273.42,210.54C273.197053,209.881153,272.926335,209.239449,272.61,208.62L272.61,207.14C272.61,205.54,274.48,202.61,274.48,202.61C273.090265,201.064249,271.575104,199.636051,269.95,198.34C266.49,195.41,260.36,191.42,260.36,191.42L257.48,194.56C252.02,195.79,244.86,203.37,240.92,211.37C236.52,220.29,238.77,233.47,236.73,242.99C235.67,247.99,230.01,253.48,225.4,260.5C236.126029,266.625289,248.01985,270.427496,260.31,271.66C261.17,265.36,261.9,259.24,263,254.88C264.184978,250.340978,266.476654,246.166486,269.67,242.73C274.28,237.7,279.79,233.67,278.12,226Z" fill="none" stroke="rgb(38,50,56)" stroke-width="1" stroke-linecap="round" stroke-linejoin="round"/><path id="ecQi375F6P1122" d="M260.28,201.56C257.387412,200.530115,254.252548,200.390787,251.28,201.16C243.99,203.09,226.09,218.32,223.11,220.49C218.72,223.68,205.58,237.05,206.34,238.1C207.1,239.15,213.54,243.31,223.65,251.98C233.76,260.65,254.65,268.5,254.65,268.5C254.65,268.5,259.77,273.83,263.3,274.99C264.36,275.34,265.22,275.57,265.93,275.73C266.13,275.8,266.34,275.87,266.54,275.92C267.957177,276.436243,269.543735,276.124323,270.66,275.11C271.192856,274.69651,271.609692,274.152213,271.87,273.53C272.675732,272.327498,273.205079,270.961441,273.42,269.53C273.56,267.86,271.08,267.53,270.48,266.36C269.64688,264.970641,268.387902,263.887008,266.89,263.27C265.89,263.05,260.21,264.93,260.21,264.93C260.21,264.93,247.41,257.93,239.28,247.16C231.96,237.5,229.7,235.93,229.7,235.93C229.7,235.93,253.54,221.42,260.79,217.76" fill="rgb(64,123,255)" stroke="none" stroke-width="1"/><g id="ecQi375F6P1123" clip-path="url(#ecQi375F6P1126)"><g id="ecQi375F6P1124"><path id="ecQi375F6P1125" d="M269.53,274.6C261.39,272.38,251.78,264.98,244.75,260.54C237.72,256.1,218.49,239.83,215.9,239.09C213.31,238.35,216.64,237.24,220.71,234.28C224.78,231.32,215.53,234.28,213.31,234.28C211.09,234.28,245.49,212.09,250.31,206.55C253.94,202.36,249.13,202.81,246.56,203.28C238.13,208.05,225.56,218.7,223.09,220.49C218.7,223.68,205.56,237.05,206.32,238.1C207.08,239.15,213.52,243.31,223.63,251.98C233.74,260.65,254.63,268.5,254.63,268.5C254.63,268.5,259.75,273.83,263.28,274.99C264.34,275.34,265.2,275.57,265.91,275.73C266.11,275.8,266.32,275.87,266.52,275.92C267.937177,276.436243,269.523735,276.124323,270.64,275.11L270.8,274.97Z" opacity="0.2" fill="rgb(0,0,0)" stroke="none" stroke-width="1"/></g><clipPath id="ecQi375F6P1126"><path id="ecQi375F6P1127" d="M260.28,201.56C257.387412,200.530115,254.252548,200.390787,251.28,201.16C243.99,203.09,226.09,218.32,223.11,220.49C218.72,223.68,205.58,237.05,206.34,238.1C207.1,239.15,213.54,243.31,223.65,251.98C233.76,260.65,254.65,268.5,254.65,268.5C254.65,268.5,259.77,273.83,263.3,274.99C264.36,275.34,265.22,275.57,265.93,275.73C266.13,275.8,266.34,275.87,266.54,275.92C267.957177,276.436243,269.543735,276.124323,270.66,275.11C271.192856,274.69651,271.609692,274.152213,271.87,273.53C272.675732,272.327498,273.205079,270.961441,273.42,269.53C273.56,267.86,271.08,267.53,270.48,266.36C269.64688,264.970641,268.387902,263.887008,266.89,263.27C265.89,263.05,260.21,264.93,260.21,264.93C260.21,264.93,247.41,257.93,239.28,247.16C231.96,237.5,229.7,235.93,229.7,235.93C229.7,235.93,253.54,221.42,260.79,217.76" fill="rgb(64,123,255)" stroke="rgb(38,50,56)" stroke-width="1" stroke-linecap="round" stroke-linejoin="round"/></clipPath></g><path id="ecQi375F6P1128" d="M260.28,201.56C257.387412,200.530115,254.252548,200.390787,251.28,201.16C243.99,203.09,226.09,218.32,223.11,220.49C218.72,223.68,205.58,237.05,206.34,238.1C207.1,239.15,213.54,243.31,223.65,251.98C233.76,260.65,254.65,268.5,254.65,268.5C254.65,268.5,259.77,273.83,263.3,274.99C264.36,275.34,265.22,275.57,265.93,275.73C266.13,275.8,266.34,275.87,266.54,275.92C267.957177,276.436243,269.543735,276.124323,270.66,275.11C271.192856,274.69651,271.609692,274.152213,271.87,273.53C272.675732,272.327498,273.205079,270.961441,273.42,269.53C273.56,267.86,271.08,267.53,270.48,266.36C269.64688,264.970641,268.387902,263.887008,266.89,263.27C265.89,263.05,260.21,264.93,260.21,264.93C260.21,264.93,247.41,257.93,239.28,247.16C231.96,237.5,229.7,235.93,229.7,235.93C229.7,235.93,253.54,221.42,260.79,217.76" fill="none" stroke="rgb(38,50,56)" stroke-width="1" stroke-linecap="round" stroke-linejoin="round"/><path id="ecQi375F6P1129" d="M270.49,266.36C269.65688,264.970641,268.397902,263.887008,266.9,263.27C265.9,263.05,260.22,264.93,260.22,264.93C258.156216,263.756122,256.153617,262.477796,254.22,261.1L249.61,266.47C252.61,267.76,254.61,268.47,254.61,268.47C254.61,268.47,259.73,273.8,263.26,274.96C264.32,275.31,265.18,275.54,265.89,275.7C266.09,275.77,266.3,275.84,266.5,275.89C267.917177,276.406243,269.503735,276.094323,270.62,275.08C271.152856,274.66651,271.569692,274.122213,271.83,273.5C272.635732,272.297498,273.165079,270.931441,273.38,269.5C273.57,267.86,271.09,267.55,270.49,266.36Z" fill="rgb(255,255,255)" stroke="rgb(38,50,56)" stroke-width="1" stroke-linecap="round" stroke-linejoin="round"/><path id="ecQi375F6P1130" d="M268.8,180.52C268.8,180.52,265.68,174.84,263.22,176.84C260.76,178.84,263.69,182.63,266.96,183.72C270.23,184.81,268.88,182.72,268.88,182.72" fill="rgb(255,255,255)" stroke="rgb(38,50,56)" stroke-width="1" stroke-linecap="round" stroke-linejoin="round"/><path id="ecQi375F6P1131" d="M233.16,294.05C237.719223,298.846169,242.543442,303.383271,247.61,307.64C256.61,315.27,273,322.24,273,322.24C273,322.24,264.07,343.07,264.4,352.34C264.73,361.61,274.57,399.94,273.67,404.78C273.67,404.78,279.09,408.89,280.06,405.46C281.64,399.92,284.6,354.89,285.78,346.31C286.94,337.9,290.02,322.76,290.01,318.85C290.01,311.35,269.85,289.92,260.9,283.85C255.849238,280.458293,251.010238,276.761417,246.41,272.78" fill="rgb(255,255,255)" stroke="rgb(38,50,56)" stroke-width="1" stroke-linecap="round" stroke-linejoin="round"/><path id="ecQi375F6P1132" d="M260.9,283.84C255.849238,280.448293,251.010238,276.751417,246.41,272.77L233.16,294.05C237.719223,298.846169,242.543442,303.383271,247.61,307.64C256.61,315.27,273,322.24,273,322.24C273,322.24,264.07,343.07,264.4,352.34C264.774041,356.509536,265.411987,360.651172,266.31,364.74C272.13875,365.950203,278.130921,366.159862,284.03,365.36C284.74,356.72,285.37,349.3,285.78,346.31C286.94,337.9,290.02,322.76,290.01,318.85C290,311.35,269.85,289.92,260.9,283.84Z" fill="rgb(38,50,56)" stroke="rgb(38,50,56)" stroke-width="1" stroke-linecap="round" stroke-linejoin="round"/><path id="ecQi375F6P1133" d="M231.06,296.6C235.58,300.26,242.66,305.6,247.61,307.6" fill="none" stroke="rgb(255,255,255)" stroke-width="1" stroke-linecap="round" stroke-linejoin="round"/><path id="ecQi375F6P1134" d="M226.67,292.94C226.67,292.94,227.44,293.61,228.67,294.67" fill="none" stroke="rgb(255,255,255)" stroke-width="1" stroke-linecap="round" stroke-linejoin="round"/><line id="ecQi375F6P1135" x1="241.04" y1="271.21" x2="256.47" y2="279.97" fill="none" stroke="rgb(255,255,255)" stroke-width="1" stroke-linecap="round" stroke-linejoin="round"/><path id="ecQi375F6P1136" d="M231.23,266C231.23,266,224.57,269.51,224.92,272.66C225.27,275.81,232.98,270.56,232.28,274.06C231.58,277.56,227.78,278.21,231.58,279.67C235.38,281.13,252.26,294.74,262.78,301.76C273.3,308.78,284.16,318.23,283.11,321.03C282.06,323.83,272.24,349.03,274.34,365.55" fill="none" stroke="rgb(255,255,255)" stroke-width="1" stroke-linecap="round" stroke-linejoin="round"/><path id="ecQi375F6P1137" d="M186,335C186,335,211.24,338.85,221.75,339.9C232.26,340.95,233.32,338.85,231.57,336.75C229.82,334.65,233.32,337.45,234.02,334.29C234.72,331.13,236.13,311.51,236.48,306.6" fill="none" stroke="rgb(255,255,255)" stroke-width="1" stroke-linecap="round" stroke-linejoin="round"/><path id="ecQi375F6P1138" d="M147.32,334.91C147.32,334.91,140.83,325.83,138.7,326.91C136.57,327.99,131.51,331.53,128.77,333C126.03,334.47,121.13,340.4,121.17,342.32C121.21,344.24,126.4,341.13,129.84,340.44C133.28,339.75,146.26,340.85,146.26,340.85C146.26,340.85,145.56,335.86,147.32,334.91Z" fill="rgb(64,123,255)" stroke="rgb(38,50,56)" stroke-width="1" stroke-linecap="round" stroke-linejoin="round"/><path id="ecQi375F6P1139" d="M140.77,327.56C139.93,326.95,139.2,326.64,138.7,326.89C136.58,327.95,131.51,331.51,128.77,332.98C126.03,334.45,121.13,340.38,121.17,342.3C121.17,343.01,121.91,343.03,122.98,342.74C125.07,338.59,129.58,336.43,133.84,332.74C136.01895,330.844616,138.335286,329.113214,140.77,327.56Z" fill="rgb(255,255,255)" stroke="rgb(38,50,56)" stroke-width="1" stroke-linecap="round" stroke-linejoin="round"/><path id="ecQi375F6P1140" d="M273.67,404.78C273.67,404.78,269,414.93,271,416.24C273,417.55,278.58,420.24,281.22,421.84C283.86,423.44,291.43,424.84,293.08,423.84C294.73,422.84,289.45,419.89,287.15,417.25C284.85,414.61,280.08,405.48,280.08,405.48C280.08,405.48,275.37,405.84,273.67,404.78Z" fill="rgb(64,123,255)" stroke="rgb(38,50,56)" stroke-width="1" stroke-linecap="round" stroke-linejoin="round"/><path id="ecQi375F6P1141" d="M293.06,423.82C293.77,423.39,293.18,422.59,292.06,421.61C290.563064,421.785045,289.052727,421.815185,287.55,421.7C284.65,421.41,274.72,416.12,270.55,413.84C270.38,415,270.45,415.91,270.95,416.24C272.95,417.56,278.53,420.24,281.17,421.84C283.81,423.44,291.41,424.81,293.06,423.82Z" fill="rgb(255,255,255)" stroke="rgb(38,50,56)" stroke-width="1" stroke-linecap="round" stroke-linejoin="round"/></g></svg>